<svg preserveAspectRatio="none" width="100%" height="100%" overflow="visible" style="display: block;" viewBox="0 0 1367 616" fill="none" xmlns="http://www.w3.org/2000/svg">
<path id="OutlineTrackBox" d="M1267.4 613H29C14.6406 613 3 601.359 3 587V312.252C3 305.216 5.85183 298.48 10.9042 293.583L54.9832 250.858C60.0356 245.961 62.8875 239.225 62.8875 232.189V29C62.8875 14.6406 74.528 3 88.8874 3H1338C1352.36 3 1364 14.6406 1364 29L1364 436.847C1364 446.724 1358.4 455.748 1349.56 460.138L1307.84 480.834C1298.99 485.223 1293.4 494.247 1293.4 504.125L1293.4 587C1293.4 601.359 1281.76 613 1267.4 613Z" stroke="var(--stroke-0, #FFE7E7)" stroke-width="6"/>
</svg>
